<svg width="88" height="88" viewBox="0 0 88 88" fill="none" xmlns="http://www.w3.org/2000/svg">
<path fill-rule="evenodd" clip-rule="evenodd" d="M44.0957 7.3335C23.8961 7.3335 7.52441 23.7052 7.52441 43.9048C7.52441 60.0602 18.0001 73.7698 32.5347 78.6098C34.3644 78.9398 35.0244 77.8142 35.0244 76.8462C35.0244 75.9772 34.9951 73.6745 34.9841 70.6275C24.8091 72.8348 22.6604 65.7215 22.6604 65.7215C21.0031 61.4975 18.6014 60.3718 18.6014 60.3718C15.2831 58.1022 18.8544 58.1535 18.8544 58.1535C22.5284 58.4102 24.4534 61.9228 24.4534 61.9228C27.7167 67.5108 33.0187 65.8975 35.0941 64.9625C35.4277 62.5975 36.3811 60.9842 37.4224 60.0712C29.3044 59.1508 20.7684 56.0122 20.7684 41.9945C20.7684 38.0088 22.1947 34.7382 24.5231 32.1862C24.1527 31.2585 22.8877 27.5368 24.8861 22.5062C24.8861 22.5062 27.9551 21.5198 34.9401 26.2498C37.9233 25.4383 41.0005 25.024 44.0921 25.0178C47.1837 25.0228 50.2611 25.4371 53.2441 26.2498C60.2327 21.5162 63.2981 22.5062 63.2981 22.5062C65.2964 27.5368 64.0424 31.2585 63.6611 32.1862C66.0077 34.7382 67.4157 38.0052 67.4157 41.9945C67.4157 56.0488 58.8724 59.1362 50.7251 60.0418C52.0267 61.1712 53.2001 63.4005 53.2001 66.8105C53.2001 71.7018 53.1561 75.6472 53.1561 76.8462C53.1561 77.8252 53.8088 78.9618 55.6751 78.6025C70.2024 73.7552 80.6671 60.0565 80.6671 43.9048C80.6671 23.7052 64.2954 7.3335 44.0957 7.3335Z" fill="#343C99"/>
</svg>
