<svg width="88" height="88" viewBox="0 0 88 88" fill="none" xmlns="http://www.w3.org/2000/svg">
<path d="M44.0001 47.7765C47.6148 47.7765 50.5451 44.8462 50.5451 41.2315C50.5451 37.6168 47.6148 34.6865 44.0001 34.6865C40.3854 34.6865 37.4551 37.6168 37.4551 41.2315C37.4551 44.8462 40.3854 47.7765 44.0001 47.7765Z" fill="#343C99"/>
<path d="M25.6742 54.2448L24.2259 53.8745C13.4679 51.1575 7.29688 46.5375 7.29688 41.2171C7.29688 35.8931 13.4715 31.2768 24.2259 28.5598L25.6742 28.1931L26.0812 29.6268C27.1685 33.3803 28.5616 37.0385 30.2465 40.5645L30.5582 41.2171L30.2465 41.8698C28.5599 45.4008 27.1629 49.0601 26.0812 52.8148L25.6742 54.2448ZM23.5585 31.8965C15.3855 34.1991 10.3659 37.7118 10.3659 41.2171C10.3659 44.7151 15.3819 48.2315 23.5585 50.5305C24.5595 47.3478 25.7695 44.2348 27.1702 41.2171C25.7594 38.1944 24.5528 35.0806 23.5585 31.8965ZM62.3225 54.2448L61.9192 52.8075C60.829 49.0532 59.4347 45.3939 57.7502 41.8661L57.4385 41.2171L57.7502 40.5608C59.4369 37.0371 60.8265 33.3741 61.9192 29.6195L62.3225 28.1895L63.7709 28.5561C74.5325 31.2731 80.6999 35.8895 80.6999 41.2171C80.6999 46.5411 74.5289 51.1575 63.7709 53.8745L62.3225 54.2448ZM60.8192 41.2171C62.2859 44.3925 63.5069 47.5165 64.4382 50.5305C72.6149 48.2315 77.6345 44.7151 77.6345 41.2171C77.6345 37.7118 72.6185 34.2028 64.4382 31.8965C63.4382 35.0796 62.2293 38.1932 60.8192 41.2171Z" fill="#343C99"/>
<path d="M23.5363 31.8815L23.133 30.4515C20.1043 19.7888 21.021 12.1512 25.652 9.48917C30.1803 6.8675 37.466 9.96583 45.0963 17.7942L46.1377 18.8648L45.0963 19.9318C42.3862 22.7503 39.9092 25.7841 37.6897 29.0032L37.2753 29.5972L36.5567 29.6558C32.6538 29.9624 28.7824 30.5865 24.981 31.5222L23.5363 31.8815ZM29.337 11.6085C28.5157 11.6085 27.7897 11.7882 27.1773 12.1402C24.1413 13.8892 23.606 19.9795 25.696 28.2002C28.963 27.4778 32.2593 26.9608 35.5813 26.6712C37.5046 23.9434 39.6026 21.3431 41.8623 18.8868C37.0847 14.2412 32.5747 11.6085 29.337 11.6085ZM58.6593 73.8832C54.3033 73.8832 48.708 70.5978 42.9 64.6358L41.8623 63.5688L42.9 62.5055C45.6105 59.6825 48.0887 56.6451 50.3103 53.4232L50.721 52.8365L51.4323 52.7668C55.3366 52.4657 59.2094 51.844 63.0117 50.9078L64.46 50.5412L64.867 51.9748C67.881 62.6302 66.968 70.2788 62.3443 72.9408C61.2217 73.5772 59.9496 73.9025 58.6593 73.8832ZM46.1377 63.5432C50.9117 68.1888 55.4253 70.8252 58.6593 70.8252C59.4843 70.8252 60.2103 70.6418 60.819 70.2935C63.8587 68.5408 64.3977 62.4395 62.3003 54.2188C59.037 54.9448 55.737 55.4655 52.4077 55.7552C50.4926 58.4873 48.398 61.089 46.1377 63.5432Z" fill="#343C99"/>
<path d="M64.4599 31.8815L63.0115 31.5185C59.2094 30.5799 55.3366 29.9557 51.4322 29.6521L50.7209 29.5898L50.3102 28.9958C48.0917 25.775 45.6133 22.7411 42.8999 19.9245L41.8622 18.8575L42.8999 17.7941C50.5265 9.96948 57.8085 6.87115 62.3442 9.48915C66.9715 12.1548 67.8919 19.7925 64.8669 30.4515L64.4599 31.8815ZM52.4075 26.6711C55.9055 26.9828 59.2202 27.5071 62.3002 28.2001C64.3939 19.9795 63.8585 13.8891 60.8189 12.1365C57.7975 10.3875 52.1105 13.0641 46.1375 18.8868C48.3962 21.3435 50.4935 23.9395 52.4075 26.6711ZM29.3369 73.8831C28.0467 73.9016 26.7748 73.5763 25.6519 72.9408C21.0209 70.2788 20.1042 62.6338 23.1292 51.9748L23.5252 50.5411L24.9735 50.9078C28.5082 51.7988 32.4022 52.4258 36.5529 52.7668L37.2642 52.8365L37.6785 53.4231C39.8932 56.6425 42.3719 59.6821 45.0852 62.5055L46.1265 63.5688L45.0852 64.6358C39.2809 70.6015 33.6855 73.8831 29.3369 73.8831ZM25.6959 54.2225C23.6059 62.4431 24.1412 68.5445 27.1772 70.2971C30.2022 72.0205 35.8709 69.3621 41.8622 63.5431C39.6034 61.0861 37.5053 58.4859 35.5812 55.7588C32.2559 55.4647 28.9536 54.9515 25.6959 54.2225Z" fill="#343C99"/>
<path d="M43.9999 56.1478C41.4809 56.1478 38.8959 56.0414 36.2999 55.8251L35.5813 55.7628L35.1669 55.1688C33.703 53.0637 32.3257 50.8998 31.0383 48.6824C29.7604 46.4591 28.5726 44.1851 27.4779 41.8661L27.1699 41.2171L27.4779 40.5608C28.5743 38.2434 29.7586 35.9701 31.0383 33.7481C32.3106 31.5628 33.7003 29.3774 35.1669 27.2581L35.5813 26.6714L36.2999 26.6054C41.4218 26.1764 46.5707 26.1764 51.6926 26.6054L52.4039 26.6751L52.8183 27.2618C55.7508 31.4739 58.3265 35.9236 60.5182 40.5644L60.8226 41.2208L60.5182 41.8698C58.3325 46.5138 55.7566 50.964 52.8183 55.1724L52.4039 55.7664L51.6926 55.8288C49.1039 56.0378 46.5153 56.1478 43.9999 56.1478ZM37.2753 52.8331C41.8036 53.1741 46.1963 53.1741 50.7209 52.8331C53.2468 49.1342 55.4922 45.2514 57.4383 41.2171C55.4991 37.1792 53.2534 33.2959 50.7209 29.6011C46.2457 29.2564 41.7505 29.2564 37.2753 29.6011C34.7406 33.2945 32.4949 37.1781 30.5579 41.2171C32.5081 45.2491 34.7534 49.1317 37.2753 52.8331Z" fill="#343C99"/>
</svg>
