<svg width="88" height="88" viewBox="0 0 88 88" fill="none" xmlns="http://www.w3.org/2000/svg">
<path d="M72.9334 28.556C75.5844 33.4049 76.9703 38.8439 76.963 44.3703C76.9644 50.1388 75.4514 55.8067 72.5751 60.807C69.6988 65.8073 65.5602 69.9649 60.573 72.864L70.6417 43.7543C72.5227 39.0536 73.1497 35.288 73.1497 31.9513C73.151 30.816 73.0788 29.6819 72.9334 28.556ZM48.5463 28.875C49.8038 28.8131 51.0587 28.7055 52.3083 28.5523C54.0867 28.3213 53.8777 25.7106 52.103 25.806C52.103 25.806 46.7387 26.2166 43.303 26.2166C40.0507 26.2166 34.5947 25.7583 34.5947 25.7583C32.809 25.6703 32.578 28.3726 34.371 28.4643C34.371 28.4643 36.0173 28.6549 37.8103 28.7393L42.94 42.812L35.6983 64.4416L23.6937 28.7869C24.9529 28.7236 26.2099 28.6221 27.463 28.4826C29.2487 28.2516 29.0397 25.6409 27.2613 25.7436C27.2613 25.7436 21.9263 26.1653 18.4797 26.1653C17.8673 26.1653 17.1413 26.1396 16.3713 26.1176C22.3407 17.3286 32.4937 11.4143 43.9997 11.4143C52.5833 11.4143 60.3933 14.6923 66.26 20.0676C66.1207 20.0603 65.9813 20.0383 65.831 20.0383C62.5933 20.0383 60.2943 22.8616 60.2943 25.8903C60.2943 28.6073 61.86 30.91 63.532 33.6196C64.7897 35.8233 66.2527 38.643 66.2527 42.7166C66.2527 45.5143 65.171 48.8106 63.741 53.3463L60.4557 64.2986L48.539 28.8236L48.5463 28.875ZM43.9997 77.319C40.8474 77.322 37.7109 76.8726 34.6863 75.9843L44.5753 47.245L54.7063 75.009C54.7833 75.1703 54.8603 75.3206 54.9447 75.4636C51.4274 76.6971 47.7269 77.3269 43.9997 77.3263V77.319ZM11.0363 44.3703C11.031 39.7483 12.0032 35.1774 13.889 30.9576L29.608 74.0373C24.04 71.3338 19.3454 67.1177 16.0611 61.8712C12.7768 56.6248 11.0355 50.5599 11.0363 44.3703ZM43.9997 7.70361C23.7853 7.70361 7.33301 24.1559 7.33301 44.3703C7.33301 64.5846 23.7853 81.037 43.9997 81.037C64.214 81.037 80.6664 64.5846 80.6664 44.3703C80.6664 24.1559 64.214 7.70361 43.9997 7.70361Z" fill="#343C99"/>
</svg>
