<svg width="88" height="88" viewBox="0 0 88 88" fill="none" xmlns="http://www.w3.org/2000/svg">
<path d="M43.9997 7.3335C64.247 7.3335 80.6664 23.7528 80.6664 44.0002C80.6664 64.2475 64.247 80.6668 43.9997 80.6668C23.7523 80.6668 7.33301 64.2475 7.33301 44.0002C7.33301 23.7528 23.7523 7.3335 43.9997 7.3335ZM36.714 56.2175C37.2493 58.1865 37.1907 60.0272 36.637 61.6918L36.439 62.2418C35.9758 63.3505 35.3218 64.3694 34.5067 65.2522C32.3727 67.5732 29.3953 68.4495 28.1193 67.7125C26.7443 66.9095 27.43 63.6352 29.905 61.0208C32.567 58.2158 36.3803 56.4082 36.3803 56.4082V56.4008L36.714 56.2175ZM66.9934 23.0305C65.336 16.5148 54.5377 14.3698 44.315 18.0035C38.243 20.1632 31.654 23.5585 26.924 27.9878C21.292 33.2458 20.3973 37.8292 20.764 39.7432C22.0657 46.5008 31.3277 50.9192 35.1373 54.1972V54.2155C34.0117 54.7618 25.7947 58.8868 23.8733 63.1548C21.809 67.6465 24.196 70.8585 25.7543 71.2655C30.5687 72.5965 35.515 70.1655 38.177 66.2275C40.74 62.3738 40.5163 57.4275 39.4127 54.9965C40.927 54.5858 42.709 54.4025 45.0007 54.6812C51.421 55.4108 52.7043 59.4478 52.422 61.0978C52.1507 62.7442 50.8233 63.7048 50.365 63.9798C49.903 64.2585 49.7673 64.3502 49.8113 64.5335C49.859 64.8048 50.09 64.8048 50.453 64.7645C50.959 64.6728 53.8043 63.3895 53.94 60.2655C54.0757 56.3275 50.3173 51.9312 43.6257 52.0155C40.8757 52.0668 39.1303 52.2942 37.8947 52.8002C37.8113 52.6709 37.7013 52.5609 37.572 52.4775C33.447 48.0298 25.791 44.9132 26.1137 39.0025C26.2053 36.8465 26.9827 31.1668 40.7803 24.2918C52.103 18.6525 61.134 20.2145 62.696 23.6502C64.9327 28.5488 57.878 37.6752 46.1007 39.0025C41.609 39.5085 39.2733 37.7668 38.672 37.1215C38.034 36.4322 37.946 36.3882 37.715 36.5312C37.3447 36.7145 37.5757 37.3085 37.715 37.6788C38.0817 38.5918 39.5007 40.2015 41.9793 41.0228C44.1317 41.7122 49.4007 42.1192 55.7294 39.6478C62.8317 36.9015 68.3757 29.2418 66.7734 22.8252L66.9934 23.0305Z" fill="#343C99"/>
</svg>
