<svg width="88" height="88" viewBox="0 0 88 88" fill="none" xmlns="http://www.w3.org/2000/svg">
<path d="M11 11H77V77H11V11ZM71.5917 61.259C71.1113 58.2487 69.1497 55.7187 63.3343 53.3573C61.3103 52.4077 59.0627 51.7513 58.388 50.226C58.1387 49.3167 58.102 48.8253 58.2633 48.2863C58.6777 46.5117 60.7823 45.98 62.4323 46.4713C63.5067 46.8013 64.4967 47.6263 65.1163 48.95C67.958 47.091 67.958 47.091 69.9417 45.8553C69.1973 44.704 68.827 44.2017 68.332 43.7067C66.5977 41.7707 64.2877 40.7807 60.5367 40.865L58.6007 41.1107C56.7417 41.5653 54.967 42.559 53.8963 43.8753C50.7613 47.4247 51.667 53.6103 55.462 56.1733C59.213 58.9783 64.7057 59.5943 65.406 62.2343C66.066 65.4537 63.0153 66.484 59.9977 66.1137C57.772 65.615 56.5327 64.504 55.1723 62.4397L50.1417 65.329C50.7173 66.6453 51.3773 67.2247 52.3673 68.3797C57.1523 73.205 69.1167 72.9593 71.2617 65.615C71.3387 65.3693 71.9217 63.679 71.467 61.0793L71.5917 61.259ZM46.8893 41.3343H40.7073C40.7073 46.662 40.6817 51.9603 40.6817 57.299C40.6817 60.687 40.854 63.7963 40.3003 64.7533C39.3947 66.649 37.0517 66.407 35.992 66.0697C34.903 65.5343 34.3493 64.79 33.7077 63.7193C33.5353 63.4333 33.407 63.184 33.3593 63.184L28.3433 66.2787C29.183 68.013 30.4077 69.5017 31.988 70.4477C34.3383 71.852 37.4953 72.3067 40.8027 71.566C42.9587 70.9427 44.8177 69.663 45.782 67.683C47.19 65.1273 46.8893 61.9887 46.8783 58.4833C46.9077 52.833 46.8783 47.179 46.8783 41.4883L46.8893 41.3343Z" fill="#343C99"/>
</svg>
