<svg width="88" height="88" viewBox="0 0 88 88" fill="none" xmlns="http://www.w3.org/2000/svg">
<path d="M79.273 40.7295L47.2593 8.72318C46.3716 7.83942 45.1699 7.34326 43.9172 7.34326C42.6645 7.34326 41.4628 7.83942 40.575 8.72318L33.942 15.3635L42.3717 23.7968C43.3663 23.4608 44.4351 23.4102 45.457 23.6507C46.4789 23.8913 47.4129 24.4134 48.1531 25.1578C48.8934 25.9022 49.4102 26.8392 49.6449 27.8624C49.8797 28.8856 49.823 29.9542 49.4813 30.9468L57.5993 39.0759C58.8012 38.6541 60.1109 38.654 61.3129 39.0754C62.5149 39.4968 63.5377 40.3147 64.2131 41.3946C64.8885 42.4745 65.1764 43.7521 65.0293 45.0174C64.8821 46.2826 64.3089 47.4601 63.4037 48.3562C61.2073 50.5562 57.6617 50.5562 55.4617 48.3562C54.6802 47.5739 54.1464 46.5789 53.9266 45.4952C53.7069 44.4115 53.811 43.2871 54.226 42.2622L46.6213 34.6979V54.6335C47.1567 54.8939 47.67 55.2532 48.1137 55.6969C49.162 56.7526 49.7504 58.18 49.7504 59.6679C49.7504 61.1557 49.162 62.5831 48.1137 63.6389C47.5906 64.1628 46.9693 64.5785 46.2854 64.8621C45.6015 65.1457 44.8684 65.2917 44.128 65.2917C43.3876 65.2917 42.6545 65.1457 41.9706 64.8621C41.2867 64.5785 40.6654 64.1628 40.1423 63.6389C39.6204 63.1184 39.2063 62.5001 38.9237 61.8193C38.6412 61.1385 38.4957 60.4086 38.4957 59.6715C38.4957 58.9344 38.6412 58.2046 38.9237 57.5238C39.2063 56.843 39.6204 56.2247 40.1423 55.7042C40.6997 55.1542 41.323 54.7362 41.9903 54.4612V34.3312C41.3048 34.0505 40.6816 33.6367 40.1569 33.1138C39.6322 32.5908 39.2164 31.9691 38.9334 31.2845C38.6504 30.5998 38.5059 29.8659 38.5082 29.1251C38.5106 28.3843 38.6597 27.6513 38.947 26.9685L30.6603 18.6415L8.70801 40.5755C6.87467 42.4235 6.87467 45.4155 8.70801 47.2635L40.7217 79.2699C41.1597 79.709 41.68 80.0574 42.2529 80.2951C42.8258 80.5328 43.4399 80.6552 44.0602 80.6552C44.6804 80.6552 45.2946 80.5328 45.8674 80.2951C46.4403 80.0574 46.9607 79.709 47.3987 79.2699L79.262 47.4102C79.7033 46.9733 80.0538 46.4535 80.2934 45.8806C80.5329 45.3077 80.6568 44.6931 80.6578 44.0721C80.6588 43.4512 80.537 42.8362 80.2993 42.2625C80.0617 41.6888 79.7129 41.1678 79.273 40.7295Z" fill="#343C99"/>
</svg>
