<svg width="88" height="88" viewBox="0 0 88 88" fill="none" xmlns="http://www.w3.org/2000/svg">
<path d="M78.0633 15.0336L62.9566 7.70023C62.397 7.47239 61.8006 7.34815 61.1966 7.33357H60.9033C59.9504 7.32818 59.0224 7.63752 58.2633 8.21357L57.7499 8.65357L28.8566 35.0169L16.2799 25.6669C15.7134 25.2335 15.0126 25.0129 14.2999 25.0436C13.6018 25.0356 12.9199 25.2543 12.3566 25.6669L8.32327 29.3336C8.00703 29.6132 7.75487 29.9578 7.58402 30.3438C7.41316 30.7298 7.32763 31.1481 7.33327 31.5702C7.33175 31.9971 7.41897 32.4196 7.5894 32.8109C7.75982 33.2023 8.00973 33.5539 8.32327 33.8436L19.3233 43.7802L8.32327 53.7536C8.01345 54.0418 7.76635 54.3908 7.59738 54.7788C7.42842 55.1668 7.34122 55.5854 7.34122 56.0086C7.34122 56.4317 7.42842 56.8504 7.59738 57.2383C7.76635 57.6263 8.01345 57.9753 8.32327 58.2636L12.3566 61.9302C12.9648 62.4622 13.7487 62.7496 14.5566 62.7369C15.1772 62.6903 15.7731 62.4747 16.2799 62.1136L28.8566 52.5436L57.7499 78.9069C58.4892 79.6686 59.4789 80.1374 60.5366 80.2269H61.1599C61.7866 80.2362 62.4052 80.0847 62.9566 79.7869L78.0633 72.4536C78.8277 72.0877 79.4757 71.517 79.9352 70.805C80.3948 70.093 80.648 69.2675 80.6666 68.4202V19.1769C80.6641 18.3118 80.4188 17.4648 79.9585 16.7323C79.4983 15.9998 78.8416 15.4112 78.0633 15.0336ZM62.3333 60.3902L40.3333 43.7802L62.3333 27.1702V60.3902Z" fill="#343C99"/>
</svg>
