<svg width="88" height="88" viewBox="0 0 88 88" fill="none" xmlns="http://www.w3.org/2000/svg">
<path d="M60.9243 2.75007C60.8122 2.75441 60.7249 2.78569 60.6665 2.84138L50.4507 14.9747L48.3667 22.1397C46.9504 22.093 45.488 22.0753 43.9893 22.0753C33.3715 22.0753 24.75 23.2 24.75 24.5943C24.75 27.9218 63.2231 27.9218 63.2231 24.5943C63.2231 23.563 58.6173 22.6919 51.9761 22.2794L53.625 16.3819L63.1802 4.88776L63.1963 4.87165C63.4108 4.6489 62.9921 3.98035 62.3101 3.3946C61.7986 2.95322 61.2606 2.73705 60.9243 2.75007ZM47.5825 24.9595L47.5449 25.0723C47.5284 25.0861 47.5288 25.1042 47.5288 25.1207C47.5288 25.3269 48.3617 25.4966 49.3765 25.4966C50.3912 25.4966 51.2295 25.3269 51.2295 25.1207L51.2617 24.9918C51.5285 25.088 51.6753 25.1983 51.6753 25.3248C51.6753 25.6575 50.6446 25.9293 49.3604 25.9156C48.1119 25.9156 47.0776 25.6629 47.0776 25.3301C47.0776 25.1871 47.2828 25.0558 47.5825 24.9595ZM63.0083 25.9048C57.9181 28.6191 30.1119 28.6374 25.0024 25.9424L27.2637 45.8316C28.2454 42.6609 30.7283 38.3801 33.9238 37.0821C34.9716 36.6531 36.0354 36.6551 37.0337 37.2271C37.8999 37.7029 38.6323 38.7002 38.7148 39.0962C38.9156 40.1275 38.3835 40.5357 37.9683 40.5357C37.4678 40.5357 37.0852 39.8099 36.835 39.3809C36.153 38.2232 35.1205 38.1734 34.0205 38.9351C32.871 39.7271 31.8723 41.0591 31.1738 42.2169C30.3241 43.6111 29.6075 45.1484 29.1758 46.6856C28.9255 47.5739 28.6969 48.9969 29.0791 49.8384C29.2469 50.1877 29.494 50.4078 29.8955 50.4078C30.7288 50.4078 31.939 49.3627 32.522 48.8072C33.27 48.0949 34.2348 46.9843 34.6006 46.272L35.4707 43.8174C35.9025 42.7394 37.1143 42.9292 37.1143 43.8174C37.1143 45.4344 36.5023 45.9734 35.4546 49.3174C34.4893 52.4084 34.187 53.4102 34.187 53.4102C34.0715 53.853 33.6209 54.5972 33.1396 54.5972C32.9389 54.5972 32.7925 54.5304 32.71 54.4039C32.5422 54.1811 32.5592 53.5697 32.5757 53.4102C32.6087 52.9042 33.6218 49.8899 33.7896 49.4141C33.4568 49.7634 33.1083 50.115 32.7261 50.4615C31.8268 51.27 30.3809 52.3306 29.1489 52.3306C28.5824 52.3306 28.2199 52.1858 27.8706 51.9493L29.1328 64.566C29.4656 65.358 35.6583 67.2784 43.812 67.2784C51.9823 67.2784 58.1696 65.3442 58.4858 64.566L60.3013 49.5753C59.3525 50.4002 58.2565 51.4164 57.041 51.9224C56.1418 52.2882 54.146 52.5217 54.146 51.0147C54.146 50.1897 55.6615 48.6709 56.5415 47.6094C56.7753 47.3399 57.3203 46.675 57.3203 46.3257C57.3203 45.8665 56.3247 45.9726 55.376 46.7178C54.8425 47.1468 54.341 47.7203 53.9258 48.2593C53.2108 49.2108 52.8294 50.0319 52.5132 50.7139C51.4819 52.9634 51.8318 52.0768 50.9985 54.1998C50.1653 56.309 50.3015 56.0688 50.1338 56.418C49.9853 56.7205 49.7675 56.9756 49.4678 57.1324C49.1515 57.2919 48.7194 57.2738 48.4526 57.084C48.3041 56.9878 48.2324 56.7818 48.2324 56.4986C48.2324 56.3556 48.2531 56.2119 48.2861 56.0689C48.5364 55.1009 49.5847 53.2019 50.7837 50.6334C51.0504 50.0476 50.9483 50.2214 50.9126 50.2681C49.8813 51.2196 49.0973 51.6802 48.5171 51.9332C47.5518 52.3457 46.353 52.3448 46.1055 51.2833C46.089 51.22 46.0897 51.1531 46.0732 51.0899C44.1097 52.5474 42.0308 52.944 42.7485 49.8062C41.984 51.107 40.6491 52.1695 39.0156 52.1695C38.3336 52.1695 37.8344 51.9496 37.5869 51.3638C37.2047 50.4921 37.8024 48.9987 38.3496 47.5879C38.6329 46.8757 39.0196 46.0188 39.5366 45.0206C39.8034 44.4816 40.2323 44.1632 40.7988 44.3062C40.8978 44.3392 40.9849 44.3723 41.0674 44.419C41.4991 44.705 41.333 45.1287 41.1157 45.5577C40.4832 46.7457 39.9346 47.618 39.5688 48.8555C39.4203 49.378 39.2329 50.2842 39.8159 50.2842C40.2147 50.2842 40.5968 50.1559 40.9653 49.9029C41.7298 49.3639 42.3455 48.5572 42.813 47.7652C43.1457 47.1959 43.5468 46.4507 43.7476 45.8155C43.8301 45.546 43.9328 45.292 44.0483 45.0528C44.2326 44.6568 44.4786 44.2471 44.9131 44.2471C45.1303 44.2471 45.3101 44.3267 45.4448 44.4835C45.7281 44.8327 45.6659 45.1915 45.5146 45.5738C45.1819 46.462 44.7337 47.2565 44.3652 48.2217C44.148 48.7772 43.9141 49.489 43.9141 50.0748C43.9141 50.6138 44.5304 50.4855 45.0474 50.2628C45.4461 50.0895 45.8452 49.8233 46.1807 49.5538C46.3814 48.7783 46.3282 48.9498 50.5742 38.7418C50.7915 38.2193 51.1906 37.9952 51.5894 37.9952C51.7901 37.9952 51.9533 38.0624 52.1211 38.1724C52.4043 38.3787 52.4085 38.8172 52.293 39.15C52.1775 39.4525 52.19 39.3575 51.541 40.815C50.6748 42.7318 50.1115 44.1146 49.3442 45.8746C49.028 46.6033 48.0644 48.8697 47.8994 49.4087C47.8004 49.758 47.6809 50.3272 48.0659 50.3272C48.9652 50.3272 51.2791 48.2497 51.9116 47.6309C51.9446 47.5842 51.996 47.5672 52.062 47.5342C52.161 47.2317 52.2588 46.9501 52.3413 46.6641C52.5751 46.0619 52.793 45.3597 53.2275 44.8702C53.3595 44.7107 53.5083 44.6177 53.6733 44.6177C54.1381 44.6177 54.3716 44.806 54.3716 45.2515C54.3716 45.4248 54.2577 46.0612 54.189 46.2344C54.4227 45.9979 54.6688 45.7619 54.9355 45.5254C57.4325 43.3227 59.2109 44.4467 59.2109 45.5577C59.2109 46.7292 57.7315 48.359 56.9175 49.2637C56.6507 49.5662 56.1015 50.1194 56.085 50.2789C56.085 50.4851 56.2329 50.5689 56.4502 50.5689C56.7829 50.5689 57.5155 50.0121 57.7822 49.8223C58.6155 49.2036 59.7427 48.2534 60.543 47.5879L63.0083 25.9048ZM30.0566 66.086L32.5381 70.1143L33.5049 82.6988C33.5049 84.1095 38.2139 85.25 44.0054 85.25C49.7969 85.25 54.5059 84.1095 54.5059 82.6988L55.2739 69.9854L57.6157 66.086C51.024 68.7342 36.9151 68.8277 30.0566 66.086Z" fill="#343C99"/>
</svg>
