<svg width="88" height="88" viewBox="0 0 88 88" fill="none" xmlns="http://www.w3.org/2000/svg">
<path d="M43.9995 3.52002C21.6423 3.52002 3.51953 21.6427 3.51953 44C3.51953 66.3573 21.6423 84.48 43.9995 84.48C66.3568 84.48 84.4795 66.3573 84.4795 44C84.4795 21.6427 66.3568 3.52002 43.9995 3.52002ZM58.7941 51.6824C56.9637 56.0314 53.5704 60.0143 47.2907 60.0143C47.2907 60.0143 44.6278 41.4586 44.5874 41.0327C44.4237 41.4797 40.6643 51.2354 40.6643 51.2354C38.8955 55.7463 35.5216 59.9931 29.2419 60.0143L24.3245 30.0168C28.4095 30.0168 33.4501 33.3696 33.8162 38.8978C33.8162 38.8978 34.4463 49.8925 34.4674 50.7672C34.8123 49.8327 39.0803 38.7763 39.0803 38.7763C40.7682 34.2443 43.959 29.9975 49.9536 29.9975C49.9536 29.9975 52.5144 49.7922 52.6165 50.7267C52.8805 49.7922 56.397 38.7763 56.397 38.7763C58.083 34.2443 61.3549 29.9975 67.573 29.9975L58.7941 51.6824Z" fill="#343C99"/>
</svg>
