<svg width="148" height="48" viewBox="0 0 148 48" fill="none" xmlns="http://www.w3.org/2000/svg">
<path d="M8.27246 6.02441H39.7305L36.8685 38.3244L23.9665 41.9764L11.1385 38.3244L8.27246 6.02441ZM18.8045 20.6284L18.4585 16.5584L33.5245 16.5624L33.8705 12.6364L14.1305 12.6324L15.1745 24.6284H28.8445L28.3585 29.7604L24.0005 30.9644L19.5725 29.7544L19.2905 26.5944H15.3825L15.8765 32.8404L24.0005 35.0124L32.0565 32.8524L33.1725 20.6304H18.8045V20.6284Z" fill="#343C99"/>
<path d="M58.3838 6.28613H89.6138L86.7738 38.3541L73.9658 41.9781L61.2278 38.3521L58.3838 6.28613ZM83.7998 12.8481L64.1998 12.8441L64.5158 16.7421L79.5738 16.7461L79.1958 20.7861H69.3198L69.6778 24.6121H78.8718L78.3278 29.8521L73.9998 31.0481L69.6058 29.8421L69.3238 26.7041H65.4438L65.8758 32.4381L73.9998 34.9681L81.9898 32.6941L83.7998 12.8481Z" fill="#343C99"/>
<path d="M106 6H142V42H106V6ZM139.05 33.414C138.788 31.772 137.718 30.392 134.546 29.104C133.442 28.586 132.216 28.228 131.848 27.396C131.712 26.9 131.692 26.632 131.78 26.338C132.006 25.37 133.154 25.08 134.054 25.348C134.64 25.528 135.18 25.978 135.518 26.7C137.068 25.686 137.068 25.686 138.15 25.012C137.744 24.384 137.542 24.11 137.272 23.84C136.326 22.784 135.066 22.244 133.02 22.29L131.964 22.424C130.95 22.672 129.982 23.214 129.398 23.932C127.688 25.868 128.182 29.242 130.252 30.64C132.298 32.17 135.294 32.506 135.676 33.946C136.036 35.702 134.372 36.264 132.726 36.062C131.512 35.79 130.836 35.184 130.094 34.058L127.35 35.634C127.664 36.352 128.024 36.668 128.564 37.298C131.174 39.93 137.7 39.796 138.87 35.79C138.912 35.656 139.23 34.734 138.982 33.316L139.05 33.414ZM125.576 22.546H122.204C122.204 25.452 122.19 28.342 122.19 31.254C122.19 33.102 122.284 34.798 121.982 35.32C121.488 36.354 120.21 36.222 119.632 36.038C119.038 35.746 118.736 35.34 118.386 34.756C118.292 34.6 118.222 34.464 118.196 34.464L115.46 36.152C115.918 37.098 116.586 37.91 117.448 38.426C118.73 39.192 120.452 39.44 122.256 39.036C123.432 38.696 124.446 37.998 124.972 36.918C125.74 35.524 125.576 33.812 125.57 31.9C125.586 28.818 125.57 25.734 125.57 22.63L125.576 22.546Z" fill="#343C99"/>
</svg>
