<svg width="43" height="43" viewBox="0 0 43 43" fill="none" xmlns="http://www.w3.org/2000/svg">
<path d="M0.75 8.15137C0.75 3.73309 4.33172 0.151367 8.75 0.151367H34.75C39.1683 0.151367 42.75 3.73309 42.75 8.15137V34.1514C42.75 38.5696 39.1683 42.1514 34.75 42.1514H8.75C4.33172 42.1514 0.75 38.5696 0.75 34.1514V8.15137Z" fill="#F7DF1E"/>
<path d="M8.00018 33.0798L11.569 30.7538C12.2576 32.0685 12.8839 33.1809 14.3863 33.1809C15.8263 33.1809 16.7345 32.5743 16.7345 30.2145V14.1664H21.117V30.2812C21.117 35.1697 18.4562 37.3949 14.5741 37.3949C11.0682 37.3949 9.0331 35.4394 8 33.0795M23.4975 32.5741L27.0659 30.3491C28.0054 32.0012 29.2263 33.2148 31.3861 33.2148C33.2022 33.2148 34.3601 32.237 34.3601 30.8884C34.3601 29.2702 33.1705 28.6969 31.167 27.7533L30.0716 27.2471C26.9096 25.7978 24.8122 23.9772 24.8122 20.1338C24.8122 16.5937 27.3166 13.8965 31.2298 13.8965C34.016 13.8965 36.0195 14.9418 37.4594 17.6726L34.047 20.0327C33.2955 18.5831 32.4819 18.01 31.2296 18.01C29.9461 18.01 29.1321 18.8866 29.1321 20.0327C29.1321 21.4487 29.9461 22.0221 31.8243 22.8987L32.9198 23.4043C36.6453 25.1239 38.7427 26.8769 38.7427 30.8211C38.7427 35.0694 35.6435 37.3955 31.4799 37.3955C27.4104 37.3955 24.7807 35.3052 23.4973 32.5743" fill="black"/>
</svg>
