<svg width="42" height="43" viewBox="0 0 42 43" fill="none" xmlns="http://www.w3.org/2000/svg">
<rect y="0.5" width="42" height="42" rx="8" fill="#1C9FFF"/>
<path d="M8.64796 36.5797L6 5.5H35.0976L32.447 36.5751L20.5311 40.0319L8.64796 36.5797Z" fill="#01111D"/>
<path d="M20.5488 37.3897L30.1775 34.5962L32.4428 8.04102H20.5488V37.3897Z" fill="#011E33"/>
<path d="M20.5488 19.3011H25.3691L25.702 15.3978H20.5488V11.5859H29.6832L29.5957 12.6087L28.7003 23.1129H20.5488V19.3011Z" fill="#1C9FFF"/>
<path d="M20.5704 29.2009L20.5544 29.2059L16.4976 28.0597L16.2382 25.0195H12.582L13.0922 31.0047L20.5538 33.1718L20.5704 33.1668V29.2009Z" fill="#1C9FFF"/>
<path d="M25.0602 22.9521L24.6214 28.0568L20.5586 29.2044V33.1703L28.0263 31.0046L28.0811 30.3606L28.7148 22.9521H25.0602Z" fill="#1C9FFF"/>
<path d="M20.5614 11.5859V15.3978H11.7626L11.6896 14.5412L11.5237 12.6087L11.4365 11.5859H20.5614ZM20.549 19.3016V23.1135H16.5433L16.4704 22.2569L16.3042 20.3244L16.2173 19.3016H20.549Z" fill="#1C9FFF"/>
</svg>
