<svg width="42" height="44" viewBox="0 0 42 44" fill="none" xmlns="http://www.w3.org/2000/svg">
<rect y="0.174805" width="42" height="43.2252" rx="8" fill="#FF501F"/>
<path d="M9.15758 36.8448L6.5 4.74414H35.7018L33.0413 36.84L21.0831 40.41L9.15758 36.8448Z" fill="#390D01"/>
<path d="M21.1016 37.6807L30.7645 34.7954L33.038 7.36816H21.1016V37.6807Z" fill="#460F00"/>
<path d="M21.1016 19.2743H16.264L15.9298 15.2425H21.1016V11.3057H11.9346L12.0222 12.3618L12.9206 23.2114H21.1016V19.2743ZM21.1016 29.4991L21.0854 29.5039L17.0141 28.3196L16.7541 25.1801H13.0839L13.5961 31.3616L21.0848 33.6004L21.1016 33.5955V29.4991Z" fill="#FF501F"/>
<path d="M21.0889 19.2743V23.2114H25.5904L25.1662 28.3173L21.0889 29.5025V33.5986L28.5835 31.3616L28.6385 30.6965L29.4975 20.3316L29.5865 19.2743H28.6015H21.0889ZM21.0889 11.3057V15.2425H29.9193L29.9926 14.358L30.1594 12.3618L30.2468 11.3057H21.0889Z" fill="#FF501F"/>
</svg>
