<svg width="209" height="33" viewBox="0 0 209 33" fill="none" xmlns="http://www.w3.org/2000/svg">
<path d="M4.048 7.78L5.616 5.956V16.452L4.528 15.46H14.112V18.34H4.528L5.616 17.284V28.5H2.16V4.9H15.536V7.78H4.048ZM19.5105 28.5V11.508H22.2305V16.724L21.3345 16.404C21.3985 15.7747 21.5585 15.156 21.8145 14.548C22.0705 13.9293 22.4225 13.3747 22.8705 12.884C23.3292 12.3827 23.8998 11.988 24.5825 11.7C25.2652 11.4013 26.0652 11.252 26.9825 11.252C27.6652 11.252 28.2198 11.3107 28.6465 11.428C29.0838 11.5347 29.3558 11.62 29.4625 11.684L28.7585 14.356C28.6518 14.2813 28.4332 14.1853 28.1025 14.068C27.7825 13.9507 27.3238 13.892 26.7265 13.892C25.8412 13.892 25.1052 14.052 24.5185 14.372C23.9425 14.692 23.4838 15.1187 23.1425 15.652C22.8118 16.1747 22.5772 16.7453 22.4385 17.364C22.2998 17.9827 22.2305 18.596 22.2305 19.204V28.5H19.5105ZM40.121 28.804C38.4143 28.804 36.905 28.4253 35.593 27.668C34.2917 26.9 33.2677 25.8547 32.521 24.532C31.785 23.1987 31.417 21.684 31.417 19.988C31.417 18.292 31.785 16.788 32.521 15.476C33.2677 14.164 34.2917 13.1347 35.593 12.388C36.905 11.6413 38.4143 11.268 40.121 11.268C41.8277 11.268 43.3317 11.6413 44.633 12.388C45.945 13.1347 46.969 14.164 47.705 15.476C48.4517 16.788 48.825 18.292 48.825 19.988C48.825 21.684 48.4517 23.1987 47.705 24.532C46.969 25.8547 45.945 26.9 44.633 27.668C43.3317 28.4253 41.8277 28.804 40.121 28.804ZM40.121 26.308C41.2943 26.308 42.329 26.0467 43.225 25.524C44.121 25.0013 44.8197 24.2653 45.321 23.316C45.833 22.3667 46.089 21.2573 46.089 19.988C46.089 18.7187 45.833 17.62 45.321 16.692C44.8197 15.7533 44.121 15.0333 43.225 14.532C42.329 14.02 41.2943 13.764 40.121 13.764C38.9583 13.764 37.9237 14.02 37.017 14.532C36.121 15.0333 35.417 15.7533 34.905 16.692C34.4037 17.62 34.153 18.7187 34.153 19.988C34.153 21.2573 34.4037 22.3667 34.905 23.316C35.417 24.2653 36.121 25.0013 37.017 25.524C37.9237 26.0467 38.9583 26.308 40.121 26.308ZM65.233 28.5V20.356C65.233 19.8653 65.233 19.4653 65.233 19.156C65.233 18.836 65.233 18.532 65.233 18.244C65.233 17.3587 65.0837 16.5853 64.785 15.924C64.4863 15.2627 64.017 14.7507 63.377 14.388C62.737 14.0253 61.8997 13.844 60.865 13.844C59.9583 13.844 59.1157 14.0787 58.337 14.548C57.569 15.0067 56.9503 15.6307 56.481 16.42C56.0223 17.1987 55.793 18.0733 55.793 19.044L54.241 18.452C54.241 17.1187 54.5663 15.908 55.217 14.82C55.8783 13.732 56.753 12.868 57.841 12.228C58.9397 11.5773 60.1343 11.252 61.425 11.252C62.737 11.252 63.8837 11.5027 64.865 12.004C65.8463 12.5053 66.6037 13.2253 67.137 14.164C67.681 15.092 67.953 16.212 67.953 17.524C67.953 17.9933 67.953 18.5053 67.953 19.06C67.953 19.6147 67.953 20.132 67.953 20.612V28.5H65.233ZM53.073 28.5V11.508H55.793V28.5H53.073ZM78.9493 28.756C78.4266 28.756 77.9146 28.6973 77.4133 28.58C76.9119 28.4627 76.4586 28.2547 76.0533 27.956C75.6586 27.6467 75.3439 27.2147 75.1093 26.66C74.8746 26.0947 74.7573 25.3693 74.7573 24.484C74.7573 24.26 74.7573 24.0307 74.7573 23.796C74.7573 23.5507 74.7573 23.2947 74.7573 23.028V13.908H70.6133V11.508H73.2693C73.6319 11.508 73.9146 11.4973 74.1173 11.476C74.3199 11.444 74.4639 11.3747 74.5493 11.268C74.6453 11.1507 74.7039 10.9747 74.7253 10.74C74.7466 10.4947 74.7573 10.1587 74.7573 9.732V5.876H77.4933V11.508H82.8053V13.908H77.4933V22.148C77.4933 22.3827 77.4933 22.612 77.4933 22.836C77.4933 23.06 77.4933 23.268 77.4933 23.46C77.4933 24.3667 77.5999 25.076 77.8133 25.588C78.0373 26.1 78.5333 26.356 79.3013 26.356C79.6106 26.356 79.9039 26.3293 80.1813 26.276C80.4586 26.2227 80.6666 26.1693 80.8053 26.116V28.484C80.6239 28.548 80.3679 28.6067 80.0373 28.66C79.7173 28.724 79.3546 28.756 78.9493 28.756ZM83.674 20.308V18.58H94.81V20.308H83.674ZM100.734 21.092V18.66H113.87L113.39 19.46C113.39 19.396 113.39 19.3373 113.39 19.284C113.39 19.22 113.39 19.1613 113.39 19.108C113.39 18.1267 113.182 17.2307 112.766 16.42C112.361 15.5987 111.753 14.9427 110.942 14.452C110.132 13.9613 109.129 13.716 107.934 13.716C106.729 13.716 105.668 13.972 104.75 14.484C103.833 14.996 103.118 15.7213 102.606 16.66C102.094 17.588 101.838 18.6973 101.838 19.988C101.838 21.3 102.084 22.4307 102.574 23.38C103.076 24.3293 103.785 25.06 104.702 25.572C105.62 26.084 106.708 26.34 107.966 26.34C108.862 26.34 109.641 26.2493 110.302 26.068C110.964 25.876 111.508 25.6253 111.934 25.316C112.372 24.996 112.702 24.6493 112.926 24.276C113.15 23.9027 113.284 23.5293 113.326 23.156H116.046C115.993 23.8387 115.78 24.516 115.406 25.188C115.033 25.86 114.505 26.4733 113.822 27.028C113.14 27.572 112.302 28.0093 111.31 28.34C110.318 28.6707 109.177 28.836 107.886 28.836C106.18 28.836 104.676 28.4627 103.374 27.716C102.073 26.9693 101.049 25.9347 100.302 24.612C99.5663 23.2893 99.1983 21.7693 99.1983 20.052C99.1983 18.3133 99.5716 16.788 100.318 15.476C101.065 14.1533 102.094 13.1187 103.406 12.372C104.718 11.6253 106.217 11.252 107.902 11.252C109.62 11.252 111.108 11.6253 112.366 12.372C113.625 13.1187 114.596 14.1427 115.278 15.444C115.961 16.7347 116.302 18.2067 116.302 19.86C116.302 20.0307 116.297 20.2547 116.286 20.532C116.276 20.8093 116.26 20.996 116.238 21.092H100.734ZM132.702 28.5V20.356C132.702 19.8653 132.702 19.4653 132.702 19.156C132.702 18.836 132.702 18.532 132.702 18.244C132.702 17.3587 132.552 16.5853 132.254 15.924C131.955 15.2627 131.486 14.7507 130.846 14.388C130.206 14.0253 129.368 13.844 128.334 13.844C127.427 13.844 126.584 14.0787 125.806 14.548C125.038 15.0067 124.419 15.6307 123.95 16.42C123.491 17.1987 123.262 18.0733 123.262 19.044L121.71 18.452C121.71 17.1187 122.035 15.908 122.686 14.82C123.347 13.732 124.222 12.868 125.31 12.228C126.408 11.5773 127.603 11.252 128.894 11.252C130.206 11.252 131.352 11.5027 132.334 12.004C133.315 12.5053 134.072 13.2253 134.606 14.164C135.15 15.092 135.422 16.212 135.422 17.524C135.422 17.9933 135.422 18.5053 135.422 19.06C135.422 19.6147 135.422 20.132 135.422 20.612V28.5H132.702ZM120.542 28.5V11.508H123.262V28.5H120.542ZM147.175 28.82C145.777 28.82 144.497 28.484 143.335 27.812C142.172 27.1293 141.244 26.132 140.551 24.82C139.857 23.4973 139.511 21.8867 139.511 19.988C139.511 18.1213 139.863 16.5373 140.567 15.236C141.271 13.9347 142.204 12.948 143.367 12.276C144.529 11.5933 145.799 11.252 147.175 11.252C148.487 11.252 149.713 11.5667 150.855 12.196C152.007 12.8147 152.935 13.6787 153.639 14.788C154.343 15.8973 154.695 17.1827 154.695 18.644C154.695 18.676 154.695 18.708 154.695 18.74C154.695 18.772 154.695 18.804 154.695 18.836L152.743 18.916C152.743 18.884 152.743 18.852 152.743 18.82C152.743 18.7773 152.743 18.74 152.743 18.708C152.743 17.78 152.497 16.9427 152.007 16.196C151.527 15.4493 150.892 14.8573 150.103 14.42C149.313 13.972 148.465 13.748 147.559 13.748C146.044 13.748 144.791 14.26 143.799 15.284C142.807 16.2973 142.311 17.8653 142.311 19.988C142.311 22.1 142.807 23.6733 143.799 24.708C144.801 25.732 146.055 26.244 147.559 26.244C148.508 26.244 149.372 26.0147 150.151 25.556C150.94 25.0973 151.569 24.484 152.039 23.716C152.508 22.9373 152.743 22.068 152.743 21.108L154.695 21.156C154.695 22.6067 154.359 23.9133 153.687 25.076C153.015 26.228 152.108 27.14 150.967 27.812C149.836 28.484 148.572 28.82 147.175 28.82ZM152.743 28.5V3.492H155.479V28.5H152.743Z" fill="#0C0E14"/>
<path d="M194 25.5L182 13.5L194 1.5" stroke="url(#paint0_linear_791_3414)" stroke-width="3"/>
<path d="M194 7.5L206 19.5L194 31.5" stroke="url(#paint1_linear_791_3414)" stroke-width="3"/>
<defs>
<linearGradient id="paint0_linear_791_3414" x1="188" y1="1.5" x2="194.5" y2="25.5" gradientUnits="userSpaceOnUse">
<stop stop-color="#3D55CC"/>
<stop offset="1" stop-color="#3D55CC" stop-opacity="0"/>
</linearGradient>
<linearGradient id="paint1_linear_791_3414" x1="200" y1="31.5" x2="194" y2="7.5" gradientUnits="userSpaceOnUse">
<stop stop-color="#364AB2"/>
<stop offset="1" stop-color="#364AB2" stop-opacity="0"/>
</linearGradient>
</defs>
</svg>
