<svg width="88" height="54" viewBox="0 0 88 54" fill="none" xmlns="http://www.w3.org/2000/svg">
<g clip-path="url(#clip0_911_145)">
<path d="M20.7634 13.877H37.362V15.1987H22.2848V25.1488H36.4623V26.4705H22.2848V37.395H37.5339V38.7184H20.7634V13.877ZM38.8487 13.877H40.6115L48.4271 24.8015L56.4164 13.877L67.2783 0L49.4292 25.9495L58.6343 38.7184H56.7933L48.4271 27.094L40.0245 38.7149H38.2269L47.4927 25.946L38.8487 13.877ZM59.2838 15.1987V13.877H78.1975V15.1987H69.484V38.7167H67.9626V15.1987H59.2786H59.2838ZM0 13.877H1.91048L28.1361 53.205L17.2985 38.7184L1.59091 15.7545L1.52143 38.7184H0V13.877ZM78.0447 36.9938C77.9346 36.9958 77.8264 36.9651 77.7339 36.9054C77.6414 36.8457 77.5688 36.7598 77.5253 36.6587C77.4818 36.5575 77.4694 36.4457 77.4898 36.3375C77.5101 36.2293 77.5622 36.1296 77.6394 36.0512C77.7167 35.9727 77.8155 35.919 77.9234 35.897C78.0312 35.875 78.1432 35.8856 78.245 35.9274C78.3468 35.9693 78.4339 36.0406 78.495 36.1321C78.5562 36.2237 78.5886 36.3314 78.5883 36.4415C78.5902 36.5138 78.5775 36.5857 78.5509 36.653C78.5244 36.7203 78.4845 36.7815 78.4338 36.8331C78.3831 36.8846 78.3225 36.9254 78.2556 36.953C78.1888 36.9806 78.117 36.9945 78.0447 36.9938ZM79.5401 35.5383H80.3546C80.3548 35.6411 80.3762 35.7428 80.4176 35.8369C80.459 35.931 80.5195 36.0155 80.5953 36.0851C80.671 36.1546 80.7603 36.2077 80.8576 36.2409C80.9549 36.2742 81.0581 36.2868 81.1605 36.2782C81.6902 36.2782 81.9907 35.9586 81.9907 35.3612V31.575H82.8192V35.3664C82.8192 36.4432 82.1974 37.0632 81.1692 37.0632C80.2035 37.0632 79.5401 36.4623 79.5401 35.5401V35.5383ZM83.9029 35.4914H84.7244C84.7956 35.9986 85.2906 36.3216 86.0044 36.3216C86.6714 36.3216 87.1594 35.9743 87.1594 35.5019C87.1594 35.0937 86.8485 34.8488 86.1416 34.6821L85.4469 34.5084C84.4813 34.2809 84.0401 33.8137 84.0401 33.0252C84.0401 32.0717 84.8165 31.436 85.9819 31.436C87.0674 31.436 87.8593 32.0717 87.908 32.9731H87.1003C87.0222 32.4798 86.5932 32.1707 85.9714 32.1707C85.3167 32.1707 84.8807 32.4868 84.8807 32.9696C84.8807 33.3517 85.1621 33.5723 85.8568 33.7355L86.4456 33.8797C87.5415 34.135 87.9931 34.5744 87.9931 35.3872C87.9931 36.4119 87.1993 37.0546 85.935 37.0546C84.7505 37.0546 83.955 36.4415 83.896 35.4827L83.9029 35.4914Z" fill="#343C99"/>
</g>
<defs>
<clipPath id="clip0_911_145">
<rect width="88" height="53.205" fill="white"/>
</clipPath>
</defs>
</svg>
