<svg width="18" height="19" viewBox="0 0 18 19" fill="none" xmlns="http://www.w3.org/2000/svg">
<path d="M17 0.0380859H1C0.734784 0.0380859 0.48043 0.143443 0.292893 0.330979C0.105357 0.518515 0 0.772869 0 1.03809V17.0381C0 17.3033 0.105357 17.5577 0.292893 17.7452C0.48043 17.9327 0.734784 18.0381 1 18.0381H17C17.2652 18.0381 17.5196 17.9327 17.7071 17.7452C17.8946 17.5577 18 17.3033 18 17.0381V1.03809C18 0.772869 17.8946 0.518515 17.7071 0.330979C17.5196 0.143443 17.2652 0.0380859 17 0.0380859ZM5.339 15.3751H2.667V6.78509H5.339V15.3751ZM4.003 5.61209C3.59244 5.61209 3.1987 5.44899 2.9084 5.15869C2.61809 4.86838 2.455 4.47464 2.455 4.06409C2.455 3.65353 2.61809 3.25979 2.9084 2.96948C3.1987 2.67918 3.59244 2.51609 4.003 2.51609C4.41356 2.51609 4.80729 2.67918 5.0976 2.96948C5.38791 3.25979 5.551 3.65353 5.551 4.06409C5.551 4.47464 5.38791 4.86838 5.0976 5.15869C4.80729 5.44899 4.41356 5.61209 4.003 5.61209ZM15.338 15.3751H12.669V11.1981C12.669 10.2021 12.651 8.92109 11.281 8.92109C9.891 8.92109 9.68 10.0071 9.68 11.1281V15.3761H7.013V6.78609H9.573V7.96009H9.61C9.965 7.28509 10.837 6.57309 12.134 6.57309C14.838 6.57309 15.337 8.35109 15.337 10.6651V15.3751H15.338Z" fill="#3D55CC"/>
</svg>
