<svg width="18" height="15" viewBox="0 0 18 15" fill="none" xmlns="http://www.w3.org/2000/svg">
<path d="M17.6338 2.24109C17.5314 1.8185 17.3312 1.4331 17.0532 1.12326C16.7751 0.813424 16.429 0.589954 16.0491 0.475093C14.6407 0.0450933 9.00623 0.0380935 9.00623 0.0380935C9.00623 0.0380935 3.37262 0.0310933 1.96331 0.442093C1.58371 0.56224 1.23826 0.78887 0.960131 1.10023C0.681998 1.41159 0.480518 1.79721 0.375036 2.22009C0.00359894 3.78609 1.3177e-06 7.03409 1.3177e-06 7.03409C1.3177e-06 7.03409 -0.00359612 10.2981 0.365143 11.8481C0.571997 12.7051 1.17907 13.3821 1.95072 13.6131C3.37352 14.0431 8.99274 14.0501 8.99274 14.0501C8.99274 14.0501 14.6273 14.0571 16.0357 13.6471C16.4156 13.5324 16.7621 13.3095 17.0408 13.0003C17.3195 12.6911 17.5209 12.3063 17.6248 11.8841C17.9972 10.3191 17.9999 7.07209 17.9999 7.07209C17.9999 7.07209 18.0179 3.80709 17.6338 2.24109ZM7.20391 10.0431L7.2084 4.04309L11.8914 7.04809L7.20391 10.0431Z" fill="#3D55CC"/>
</svg>
